<svg class="rich-terminal" viewBox="0 0 994 635.5999999999999" xmlns="http://www.w3.org/2000/svg">
    <!-- Generated with Rich https://www.textualize.io -->
    <style>

    @font-face {
        font-family: "Fira Code";
        src: local("FiraCode-Regular"),
                url("https://cdnjs.cloudflare.com/ajax/libs/firacode/6.2.0/woff2/FiraCode-Regular.woff2") format("woff2"),
                url("https://cdnjs.cloudflare.com/ajax/libs/firacode/6.2.0/woff/FiraCode-Regular.woff") format("woff");
        font-style: normal;
        font-weight: 400;
    }
    @font-face {
        font-family: "Fira Code";
        src: local("FiraCode-Bold"),
                url("https://cdnjs.cloudflare.com/ajax/libs/firacode/6.2.0/woff2/FiraCode-Bold.woff2") format("woff2"),
                url("https://cdnjs.cloudflare.com/ajax/libs/firacode/6.2.0/woff/FiraCode-Bold.woff") format("woff");
        font-style: bold;
        font-weight: 700;
    }

    .terminal-2085168161-matrix {
        font-family: Fira Code, monospace;
        font-size: 20px;
        line-height: 24.4px;
        font-variant-east-asian: full-width;
    }

    .terminal-2085168161-title {
        font-size: 18px;
        font-weight: bold;
        font-family: arial;
    }

    .terminal-2085168161-r1 { fill: #c5c8c6 }
.terminal-2085168161-r2 { fill: #e8e8e8;font-weight: bold }
.terminal-2085168161-r3 { fill: #a0a0a0 }
.terminal-2085168161-r4 { fill: #333333 }
.terminal-2085168161-r5 { fill: #101010;font-weight: bold }
.terminal-2085168161-r6 { fill: #a0a0a0;font-weight: bold }
.terminal-2085168161-r7 { fill: #e8e8e8 }
.terminal-2085168161-r8 { fill: #909090;font-weight: bold }
.terminal-2085168161-r9 { fill: #cccccc }
.terminal-2085168161-r10 { fill: #b0b0b0;font-weight: bold }
.terminal-2085168161-r11 { fill: #171717 }
.terminal-2085168161-r12 { fill: #000000 }
.terminal-2085168161-r13 { fill: #b8b8b8 }
    </style>

    <defs>
    <clipPath id="terminal-2085168161-clip-terminal">
      <rect x="0" y="0" width="975.0" height="584.5999999999999" />
    </clipPath>
    <clipPath id="terminal-2085168161-line-0">
    <rect x="0" y="1.5" width="976" height="24.65"/>
            </clipPath>
<clipPath id="terminal-2085168161-line-1">
    <rect x="0" y="25.9" width="976" height="24.65"/>
            </clipPath>
<clipPath id="terminal-2085168161-line-2">
    <rect x="0" y="50.3" width="976" height="24.65"/>
            </clipPath>
<clipPath id="terminal-2085168161-line-3">
    <rect x="0" y="74.7" width="976" height="24.65"/>
            </clipPath>
<clipPath id="terminal-2085168161-line-4">
    <rect x="0" y="99.1" width="976" height="24.65"/>
            </clipPath>
<clipPath id="terminal-2085168161-line-5">
    <rect x="0" y="123.5" width="976" height="24.65"/>
            </clipPath>
<clipPath id="terminal-2085168161-line-6">
    <rect x="0" y="147.9" width="976" height="24.65"/>
            </clipPath>
<clipPath id="terminal-2085168161-line-7">
    <rect x="0" y="172.3" width="976" height="24.65"/>
            </clipPath>
<clipPath id="terminal-2085168161-line-8">
    <rect x="0" y="196.7" width="976" height="24.65"/>
            </clipPath>
<clipPath id="terminal-2085168161-line-9">
    <rect x="0" y="221.1" width="976" height="24.65"/>
            </clipPath>
<clipPath id="terminal-2085168161-line-10">
    <rect x="0" y="245.5" width="976" height="24.65"/>
            </clipPath>
<clipPath id="terminal-2085168161-line-11">
    <rect x="0" y="269.9" width="976" height="24.65"/>
            </clipPath>
<clipPath id="terminal-2085168161-line-12">
    <rect x="0" y="294.3" width="976" height="24.65"/>
            </clipPath>
<clipPath id="terminal-2085168161-line-13">
    <rect x="0" y="318.7" width="976" height="24.65"/>
            </clipPath>
<clipPath id="terminal-2085168161-line-14">
    <rect x="0" y="343.1" width="976" height="24.65"/>
            </clipPath>
<clipPath id="terminal-2085168161-line-15">
    <rect x="0" y="367.5" width="976" height="24.65"/>
            </clipPath>
<clipPath id="terminal-2085168161-line-16">
    <rect x="0" y="391.9" width="976" height="24.65"/>
            </clipPath>
<clipPath id="terminal-2085168161-line-17">
    <rect x="0" y="416.3" width="976" height="24.65"/>
            </clipPath>
<clipPath id="terminal-2085168161-line-18">
    <rect x="0" y="440.7" width="976" height="24.65"/>
            </clipPath>
<clipPath id="terminal-2085168161-line-19">
    <rect x="0" y="465.1" width="976" height="24.65"/>
            </clipPath>
<clipPath id="terminal-2085168161-line-20">
    <rect x="0" y="489.5" width="976" height="24.65"/>
            </clipPath>
<clipPath id="terminal-2085168161-line-21">
    <rect x="0" y="513.9" width="976" height="24.65"/>
            </clipPath>
<clipPath id="terminal-2085168161-line-22">
    <rect x="0" y="538.3" width="976" height="24.65"/>
            </clipPath>
    </defs>

    <rect fill="#292929" stroke="rgba(255,255,255,0.35)" stroke-width="1" x="1" y="1" width="992" height="633.6" rx="8"/><text class="terminal-2085168161-title" fill="#c5c8c6" text-anchor="middle" x="496" y="27">Battlecode</text>
            <g transform="translate(26,22)">
            <circle cx="0" cy="0" r="7" fill="#ff5f57"/>
            <circle cx="22" cy="0" r="7" fill="#febc2e"/>
            <circle cx="44" cy="0" r="7" fill="#28c840"/>
            </g>

    <g transform="translate(9, 41)" clip-path="url(#terminal-2085168161-clip-terminal)">
    <rect fill="#121212" x="0" y="1.5" width="24.4" height="24.65" shape-rendering="crispEdges"/><rect fill="#121212" x="24.4" y="1.5" width="927.2" height="24.65" shape-rendering="crispEdges"/><rect fill="#121212" x="951.6" y="1.5" width="24.4" height="24.65" shape-rendering="crispEdges"/><rect fill="#121212" x="0" y="25.9" width="24.4" height="24.65" shape-rendering="crispEdges"/><rect fill="#121212" x="24.4" y="25.9" width="122" height="24.65" shape-rendering="crispEdges"/><rect fill="#121212" x="146.4" y="25.9" width="500.2" height="24.65" shape-rendering="crispEdges"/><rect fill="#121212" x="646.6" y="25.9" width="305" height="24.65" shape-rendering="crispEdges"/><rect fill="#121212" x="951.6" y="25.9" width="24.4" height="24.65" shape-rendering="crispEdges"/><rect fill="#121212" x="0" y="50.3" width="976" height="24.65" shape-rendering="crispEdges"/><rect fill="#121212" x="0" y="74.7" width="207.4" height="24.65" shape-rendering="crispEdges"/><rect fill="#121212" x="207.4" y="74.7" width="12.2" height="24.65" shape-rendering="crispEdges"/><rect fill="#0c0c0c" x="219.6" y="74.7" width="24.4" height="24.65" shape-rendering="crispEdges"/><rect fill="#0c0c0c" x="244" y="74.7" width="134.2" height="24.65" shape-rendering="crispEdges"/><rect fill="#0c0c0c" x="378.2" y="74.7" width="573.4" height="24.65" shape-rendering="crispEdges"/><rect fill="#0c0c0c" x="951.6" y="74.7" width="24.4" height="24.65" shape-rendering="crispEdges"/><rect fill="#121212" x="0" y="99.1" width="12.2" height="24.65" shape-rendering="crispEdges"/><rect fill="#e8e8e8" x="12.2" y="99.1" width="12.2" height="24.65" shape-rendering="crispEdges"/><rect fill="#e8e8e8" x="24.4" y="99.1" width="122" height="24.65" shape-rendering="crispEdges"/><rect fill="#e8e8e8" x="146.4" y="99.1" width="36.6" height="24.65" shape-rendering="crispEdges"/><rect fill="#e8e8e8" x="183" y="99.1" width="12.2" height="24.65" shape-rendering="crispEdges"/><rect fill="#121212" x="195.2" y="99.1" width="12.2" height="24.65" shape-rendering="crispEdges"/><rect fill="#121212" x="207.4" y="99.1" width="12.2" height="24.65" shape-rendering="crispEdges"/><rect fill="#0c0c0c" x="219.6" y="99.1" width="24.4" height="24.65" shape-rendering="crispEdges"/><rect fill="#0c0c0c" x="244" y="99.1" width="36.6" height="24.65" shape-rendering="crispEdges"/><rect fill="#0c0c0c" x="280.6" y="99.1" width="244" height="24.65" shape-rendering="crispEdges"/><rect fill="#0c0c0c" x="524.6" y="99.1" width="48.8" height="24.65" shape-rendering="crispEdges"/><rect fill="#0c0c0c" x="573.4" y="99.1" width="85.4" height="24.65" shape-rendering="crispEdges"/><rect fill="#0c0c0c" x="658.8" y="99.1" width="292.8" height="24.65" shape-rendering="crispEdges"/><rect fill="#0c0c0c" x="951.6" y="99.1" width="24.4" height="24.65" shape-rendering="crispEdges"/><rect fill="#121212" x="0" y="123.5" width="12.2" height="24.65" shape-rendering="crispEdges"/><rect fill="#121212" x="12.2" y="123.5" width="12.2" height="24.65" shape-rendering="crispEdges"/><rect fill="#121212" x="24.4" y="123.5" width="73.2" height="24.65" shape-rendering="crispEdges"/><rect fill="#121212" x="97.6" y="123.5" width="85.4" height="24.65" shape-rendering="crispEdges"/><rect fill="#121212" x="183" y="123.5" width="12.2" height="24.65" shape-rendering="crispEdges"/><rect fill="#121212" x="195.2" y="123.5" width="12.2" height="24.65" shape-rendering="crispEdges"/><rect fill="#121212" x="207.4" y="123.5" width="12.2" height="24.65" shape-rendering="crispEdges"/><rect fill="#0c0c0c" x="219.6" y="123.5" width="24.4" height="24.65" shape-rendering="crispEdges"/><rect fill="#0c0c0c" x="244" y="123.5" width="183" height="24.65" shape-rendering="crispEdges"/><rect fill="#0c0c0c" x="427" y="123.5" width="97.6" height="24.65" shape-rendering="crispEdges"/><rect fill="#0c0c0c" x="524.6" y="123.5" width="85.4" height="24.65" shape-rendering="crispEdges"/><rect fill="#0c0c0c" x="610" y="123.5" width="48.8" height="24.65" shape-rendering="crispEdges"/><rect fill="#0c0c0c" x="658.8" y="123.5" width="134.2" height="24.65" shape-rendering="crispEdges"/><rect fill="#0c0c0c" x="793" y="123.5" width="158.6" height="24.65" shape-rendering="crispEdges"/><rect fill="#0c0c0c" x="951.6" y="123.5" width="24.4" height="24.65" shape-rendering="crispEdges"/><rect fill="#121212" x="0" y="147.9" width="12.2" height="24.65" shape-rendering="crispEdges"/><rect fill="#121212" x="12.2" y="147.9" width="12.2" height="24.65" shape-rendering="crispEdges"/><rect fill="#121212" x="24.4" y="147.9" width="85.4" height="24.65" shape-rendering="crispEdges"/><rect fill="#121212" x="109.8" y="147.9" width="73.2" height="24.65" shape-rendering="crispEdges"/><rect fill="#121212" x="183" y="147.9" width="12.2" height="24.65" shape-rendering="crispEdges"/><rect fill="#121212" x="195.2" y="147.9" width="12.2" height="24.65" shape-rendering="crispEdges"/><rect fill="#121212" x="207.4" y="147.9" width="12.2" height="24.65" shape-rendering="crispEdges"/><rect fill="#0c0c0c" x="219.6" y="147.9" width="24.4" height="24.65" shape-rendering="crispEdges"/><rect fill="#0c0c0c" x="244" y="147.9" width="183" height="24.65" shape-rendering="crispEdges"/><rect fill="#0c0c0c" x="427" y="147.9" width="97.6" height="24.65" shape-rendering="crispEdges"/><rect fill="#0c0c0c" x="524.6" y="147.9" width="85.4" height="24.65" shape-rendering="crispEdges"/><rect fill="#0c0c0c" x="610" y="147.9" width="48.8" height="24.65" shape-rendering="crispEdges"/><rect fill="#0c0c0c" x="658.8" y="147.9" width="170.8" height="24.65" shape-rendering="crispEdges"/><rect fill="#0c0c0c" x="829.6" y="147.9" width="122" height="24.65" shape-rendering="crispEdges"/><rect fill="#0c0c0c" x="951.6" y="147.9" width="24.4" height="24.65" shape-rendering="crispEdges"/><rect fill="#121212" x="0" y="172.3" width="12.2" height="24.65" shape-rendering="crispEdges"/><rect fill="#121212" x="12.2" y="172.3" width="12.2" height="24.65" shape-rendering="crispEdges"/><rect fill="#121212" x="24.4" y="172.3" width="85.4" height="24.65" shape-rendering="crispEdges"/><rect fill="#121212" x="109.8" y="172.3" width="73.2" height="24.65" shape-rendering="crispEdges"/><rect fill="#121212" x="183" y="172.3" width="12.2" height="24.65" shape-rendering="crispEdges"/><rect fill="#121212" x="195.2" y="172.3" width="12.2" height="24.65" shape-rendering="crispEdges"/><rect fill="#121212" x="207.4" y="172.3" width="12.2" height="24.65" shape-rendering="crispEdges"/><rect fill="#0c0c0c" x="219.6" y="172.3" width="24.4" height="24.65" shape-rendering="crispEdges"/><rect fill="#0c0c0c" x="244" y="172.3" width="183" height="24.65" shape-rendering="crispEdges"/><rect fill="#0c0c0c" x="427" y="172.3" width="97.6" height="24.65" shape-rendering="crispEdges"/><rect fill="#0c0c0c" x="524.6" y="172.3" width="85.4" height="24.65" shape-rendering="crispEdges"/><rect fill="#0c0c0c" x="610" y="172.3" width="48.8" height="24.65" shape-rendering="crispEdges"/><rect fill="#0c0c0c" x="658.8" y="172.3" width="292.8" height="24.65" shape-rendering="crispEdges"/><rect fill="#0c0c0c" x="951.6" y="172.3" width="24.4" height="24.65" shape-rendering="crispEdges"/><rect fill="#121212" x="0" y="196.7" width="12.2" height="24.65" shape-rendering="crispEdges"/><rect fill="#121212" x="12.2" y="196.7" width="12.2" height="24.65" shape-rendering="crispEdges"/><rect fill="#121212" x="24.4" y="196.7" width="158.6" height="24.65" shape-rendering="crispEdges"/><rect fill="#121212" x="183" y="196.7" width="12.2" height="24.65" shape-rendering="crispEdges"/><rect fill="#121212" x="195.2" y="196.7" width="12.2" height="24.65" shape-rendering="crispEdges"/><rect fill="#121212" x="207.4" y="196.7" width="12.2" height="24.65" shape-rendering="crispEdges"/><rect fill="#0c0c0c" x="219.6" y="196.7" width="24.4" height="24.65" shape-rendering="crispEdges"/><rect fill="#0c0c0c" x="244" y="196.7" width="134.2" height="24.65" shape-rendering="crispEdges"/><rect fill="#0c0c0c" x="378.2" y="196.7" width="207.4" height="24.65" shape-rendering="crispEdges"/><rect fill="#0c0c0c" x="585.6" y="196.7" width="24.4" height="24.65" shape-rendering="crispEdges"/><rect fill="#0c0c0c" x="610" y="196.7" width="146.4" height="24.65" shape-rendering="crispEdges"/><rect fill="#0c0c0c" x="756.4" y="196.7" width="195.2" height="24.65" shape-rendering="crispEdges"/><rect fill="#0c0c0c" x="951.6" y="196.7" width="24.4" height="24.65" shape-rendering="crispEdges"/><rect fill="#121212" x="0" y="221.1" width="12.2" height="24.65" shape-rendering="crispEdges"/><rect fill="#121212" x="12.2" y="221.1" width="12.2" height="24.65" shape-rendering="crispEdges"/><rect fill="#121212" x="24.4" y="221.1" width="122" height="24.65" shape-rendering="crispEdges"/><rect fill="#121212" x="146.4" y="221.1" width="36.6" height="24.65" shape-rendering="crispEdges"/><rect fill="#121212" x="183" y="221.1" width="12.2" height="24.65" shape-rendering="crispEdges"/><rect fill="#121212" x="195.2" y="221.1" width="12.2" height="24.65" shape-rendering="crispEdges"/><rect fill="#121212" x="207.4" y="221.1" width="12.2" height="24.65" shape-rendering="crispEdges"/><rect fill="#0c0c0c" x="219.6" y="221.1" width="24.4" height="24.65" shape-rendering="crispEdges"/><rect fill="#0c0c0c" x="244" y="221.1" width="73.2" height="24.65" shape-rendering="crispEdges"/><rect fill="#0c0c0c" x="317.2" y="221.1" width="256.2" height="24.65" shape-rendering="crispEdges"/><rect fill="#0c0c0c" x="573.4" y="221.1" width="12.2" height="24.65" shape-rendering="crispEdges"/><rect fill="#0c0c0c" x="585.6" y="221.1" width="24.4" height="24.65" shape-rendering="crispEdges"/><rect fill="#0c0c0c" x="610" y="221.1" width="73.2" height="24.65" shape-rendering="crispEdges"/><rect fill="#0c0c0c" x="683.2" y="221.1" width="256.2" height="24.65" shape-rendering="crispEdges"/><rect fill="#0c0c0c" x="939.4" y="221.1" width="12.2" height="24.65" shape-rendering="crispEdges"/><rect fill="#0c0c0c" x="951.6" y="221.1" width="24.4" height="24.65" shape-rendering="crispEdges"/><rect fill="#121212" x="0" y="245.5" width="12.2" height="24.65" shape-rendering="crispEdges"/><rect fill="#121212" x="12.2" y="245.5" width="183" height="24.65" shape-rendering="crispEdges"/><rect fill="#121212" x="195.2" y="245.5" width="12.2" height="24.65" shape-rendering="crispEdges"/><rect fill="#121212" x="207.4" y="245.5" width="12.2" height="24.65" shape-rendering="crispEdges"/><rect fill="#0c0c0c" x="219.6" y="245.5" width="24.4" height="24.65" shape-rendering="crispEdges"/><rect fill="#0c0c0c" x="244" y="245.5" width="73.2" height="24.65" shape-rendering="crispEdges"/><rect fill="#0c0c0c" x="317.2" y="245.5" width="256.2" height="24.65" shape-rendering="crispEdges"/><rect fill="#0c0c0c" x="573.4" y="245.5" width="12.2" height="24.65" shape-rendering="crispEdges"/><rect fill="#0c0c0c" x="585.6" y="245.5" width="24.4" height="24.65" shape-rendering="crispEdges"/><rect fill="#0c0c0c" x="610" y="245.5" width="73.2" height="24.65" shape-rendering="crispEdges"/><rect fill="#0c0c0c" x="683.2" y="245.5" width="256.2" height="24.65" shape-rendering="crispEdges"/><rect fill="#0c0c0c" x="939.4" y="245.5" width="12.2" height="24.65" shape-rendering="crispEdges"/><rect fill="#0c0c0c" x="951.6" y="245.5" width="24.4" height="24.65" shape-rendering="crispEdges"/><rect fill="#121212" x="0" y="269.9" width="12.2" height="24.65" shape-rendering="crispEdges"/><rect fill="#121212" x="12.2" y="269.9" width="183" height="24.65" shape-rendering="crispEdges"/><rect fill="#121212" x="195.2" y="269.9" width="12.2" height="24.65" shape-rendering="crispEdges"/><rect fill="#121212" x="207.4" y="269.9" width="12.2" height="24.65" shape-rendering="crispEdges"/><rect fill="#0c0c0c" x="219.6" y="269.9" width="24.4" height="24.65" shape-rendering="crispEdges"/><rect fill="#0c0c0c" x="244" y="269.9" width="73.2" height="24.65" shape-rendering="crispEdges"/><rect fill="#0c0c0c" x="317.2" y="269.9" width="256.2" height="24.65" shape-rendering="crispEdges"/><rect fill="#0c0c0c" x="573.4" y="269.9" width="12.2" height="24.65" shape-rendering="crispEdges"/><rect fill="#0c0c0c" x="585.6" y="269.9" width="24.4" height="24.65" shape-rendering="crispEdges"/><rect fill="#0c0c0c" x="610" y="269.9" width="73.2" height="24.65" shape-rendering="crispEdges"/><rect fill="#0c0c0c" x="683.2" y="269.9" width="256.2" height="24.65" shape-rendering="crispEdges"/><rect fill="#0c0c0c" x="939.4" y="269.9" width="12.2" height="24.65" shape-rendering="crispEdges"/><rect fill="#0c0c0c" x="951.6" y="269.9" width="24.4" height="24.65" shape-rendering="crispEdges"/><rect fill="#121212" x="0" y="294.3" width="12.2" height="24.65" shape-rendering="crispEdges"/><rect fill="#121212" x="12.2" y="294.3" width="183" height="24.65" shape-rendering="crispEdges"/><rect fill="#121212" x="195.2" y="294.3" width="12.2" height="24.65" shape-rendering="crispEdges"/><rect fill="#121212" x="207.4" y="294.3" width="12.2" height="24.65" shape-rendering="crispEdges"/><rect fill="#0c0c0c" x="219.6" y="294.3" width="24.4" height="24.65" shape-rendering="crispEdges"/><rect fill="#0c0c0c" x="244" y="294.3" width="329.4" height="24.65" shape-rendering="crispEdges"/><rect fill="#0c0c0c" x="573.4" y="294.3" width="12.2" height="24.65" shape-rendering="crispEdges"/><rect fill="#0c0c0c" x="585.6" y="294.3" width="24.4" height="24.65" shape-rendering="crispEdges"/><rect fill="#0c0c0c" x="610" y="294.3" width="329.4" height="24.65" shape-rendering="crispEdges"/><rect fill="#0c0c0c" x="939.4" y="294.3" width="12.2" height="24.65" shape-rendering="crispEdges"/><rect fill="#0c0c0c" x="951.6" y="294.3" width="24.4" height="24.65" shape-rendering="crispEdges"/><rect fill="#121212" x="0" y="318.7" width="12.2" height="24.65" shape-rendering="crispEdges"/><rect fill="#121212" x="12.2" y="318.7" width="183" height="24.65" shape-rendering="crispEdges"/><rect fill="#121212" x="195.2" y="318.7" width="12.2" height="24.65" shape-rendering="crispEdges"/><rect fill="#121212" x="207.4" y="318.7" width="12.2" height="24.65" shape-rendering="crispEdges"/><rect fill="#0c0c0c" x="219.6" y="318.7" width="24.4" height="24.65" shape-rendering="crispEdges"/><rect fill="#0c0c0c" x="244" y="318.7" width="341.6" height="24.65" shape-rendering="crispEdges"/><rect fill="#0c0c0c" x="585.6" y="318.7" width="24.4" height="24.65" shape-rendering="crispEdges"/><rect fill="#0c0c0c" x="610" y="318.7" width="341.6" height="24.65" shape-rendering="crispEdges"/><rect fill="#0c0c0c" x="951.6" y="318.7" width="24.4" height="24.65" shape-rendering="crispEdges"/><rect fill="#121212" x="0" y="343.1" width="12.2" height="24.65" shape-rendering="crispEdges"/><rect fill="#121212" x="12.2" y="343.1" width="183" height="24.65" shape-rendering="crispEdges"/><rect fill="#121212" x="195.2" y="343.1" width="12.2" height="24.65" shape-rendering="crispEdges"/><rect fill="#121212" x="207.4" y="343.1" width="12.2" height="24.65" shape-rendering="crispEdges"/><rect fill="#0c0c0c" x="219.6" y="343.1" width="24.4" height="24.65" shape-rendering="crispEdges"/><rect fill="#0c0c0c" x="244" y="343.1" width="646.6" height="24.65" shape-rendering="crispEdges"/><rect fill="#0c0c0c" x="890.6" y="343.1" width="61" height="24.65" shape-rendering="crispEdges"/><rect fill="#0c0c0c" x="951.6" y="343.1" width="24.4" height="24.65" shape-rendering="crispEdges"/><rect fill="#121212" x="0" y="367.5" width="12.2" height="24.65" shape-rendering="crispEdges"/><rect fill="#121212" x="12.2" y="367.5" width="183" height="24.65" shape-rendering="crispEdges"/><rect fill="#121212" x="195.2" y="367.5" width="12.2" height="24.65" shape-rendering="crispEdges"/><rect fill="#121212" x="207.4" y="367.5" width="12.2" height="24.65" shape-rendering="crispEdges"/><rect fill="#0c0c0c" x="219.6" y="367.5" width="24.4" height="24.65" shape-rendering="crispEdges"/><rect fill="#0c0c0c" x="244" y="367.5" width="707.6" height="24.65" shape-rendering="crispEdges"/><rect fill="#0c0c0c" x="951.6" y="367.5" width="24.4" height="24.65" shape-rendering="crispEdges"/><rect fill="#121212" x="0" y="391.9" width="12.2" height="24.65" shape-rendering="crispEdges"/><rect fill="#121212" x="12.2" y="391.9" width="183" height="24.65" shape-rendering="crispEdges"/><rect fill="#121212" x="195.2" y="391.9" width="12.2" height="24.65" shape-rendering="crispEdges"/><rect fill="#121212" x="207.4" y="391.9" width="12.2" height="24.65" shape-rendering="crispEdges"/><rect fill="#0c0c0c" x="219.6" y="391.9" width="24.4" height="24.65" shape-rendering="crispEdges"/><rect fill="#0c0c0c" x="244" y="391.9" width="146.4" height="24.65" shape-rendering="crispEdges"/><rect fill="#0c0c0c" x="390.4" y="391.9" width="561.2" height="24.65" shape-rendering="crispEdges"/><rect fill="#0c0c0c" x="951.6" y="391.9" width="24.4" height="24.65" shape-rendering="crispEdges"/><rect fill="#121212" x="0" y="416.3" width="12.2" height="24.65" shape-rendering="crispEdges"/><rect fill="#121212" x="12.2" y="416.3" width="183" height="24.65" shape-rendering="crispEdges"/><rect fill="#121212" x="195.2" y="416.3" width="12.2" height="24.65" shape-rendering="crispEdges"/><rect fill="#121212" x="207.4" y="416.3" width="12.2" height="24.65" shape-rendering="crispEdges"/><rect fill="#0c0c0c" x="219.6" y="416.3" width="24.4" height="24.65" shape-rendering="crispEdges"/><rect fill="#2a2a2a" x="244" y="416.3" width="268.4" height="24.65" shape-rendering="crispEdges"/><rect fill="#2a2a2a" x="512.4" y="416.3" width="122" height="24.65" shape-rendering="crispEdges"/><rect fill="#2a2a2a" x="634.4" y="416.3" width="122" height="24.65" shape-rendering="crispEdges"/><rect fill="#2a2a2a" x="756.4" y="416.3" width="109.8" height="24.65" shape-rendering="crispEdges"/><rect fill="#2a2a2a" x="866.2" y="416.3" width="73.2" height="24.65" shape-rendering="crispEdges"/><rect fill="#5c5c5c" x="939.4" y="416.3" width="12.2" height="24.65" shape-rendering="crispEdges"/><rect fill="#0c0c0c" x="951.6" y="416.3" width="24.4" height="24.65" shape-rendering="crispEdges"/><rect fill="#121212" x="0" y="440.7" width="12.2" height="24.65" shape-rendering="crispEdges"/><rect fill="#121212" x="12.2" y="440.7" width="183" height="24.65" shape-rendering="crispEdges"/><rect fill="#121212" x="195.2" y="440.7" width="12.2" height="24.65" shape-rendering="crispEdges"/><rect fill="#121212" x="207.4" y="440.7" width="12.2" height="24.65" shape-rendering="crispEdges"/><rect fill="#0c0c0c" x="219.6" y="440.7" width="24.4" height="24.65" shape-rendering="crispEdges"/><rect fill="#e8e8e8" x="244" y="440.7" width="268.4" height="24.65" shape-rendering="crispEdges"/><rect fill="#e8e8e8" x="512.4" y="440.7" width="122" height="24.65" shape-rendering="crispEdges"/><rect fill="#e8e8e8" x="634.4" y="440.7" width="122" height="24.65" shape-rendering="crispEdges"/><rect fill="#e8e8e8" x="756.4" y="440.7" width="109.8" height="24.65" shape-rendering="crispEdges"/><rect fill="#e8e8e8" x="866.2" y="440.7" width="73.2" height="24.65" shape-rendering="crispEdges"/><rect fill="#5c5c5c" x="939.4" y="440.7" width="12.2" height="24.65" shape-rendering="crispEdges"/><rect fill="#0c0c0c" x="951.6" y="440.7" width="24.4" height="24.65" shape-rendering="crispEdges"/><rect fill="#121212" x="0" y="465.1" width="12.2" height="24.65" shape-rendering="crispEdges"/><rect fill="#121212" x="12.2" y="465.1" width="183" height="24.65" shape-rendering="crispEdges"/><rect fill="#121212" x="195.2" y="465.1" width="12.2" height="24.65" shape-rendering="crispEdges"/><rect fill="#121212" x="207.4" y="465.1" width="12.2" height="24.65" shape-rendering="crispEdges"/><rect fill="#0c0c0c" x="219.6" y="465.1" width="24.4" height="24.65" shape-rendering="crispEdges"/><rect fill="#171717" x="244" y="465.1" width="268.4" height="24.65" shape-rendering="crispEdges"/><rect fill="#171717" x="512.4" y="465.1" width="122" height="24.65" shape-rendering="crispEdges"/><rect fill="#171717" x="634.4" y="465.1" width="122" height="24.65" shape-rendering="crispEdges"/><rect fill="#171717" x="756.4" y="465.1" width="109.8" height="24.65" shape-rendering="crispEdges"/><rect fill="#171717" x="866.2" y="465.1" width="73.2" height="24.65" shape-rendering="crispEdges"/><rect fill="#5c5c5c" x="939.4" y="465.1" width="12.2" height="24.65" shape-rendering="crispEdges"/><rect fill="#0c0c0c" x="951.6" y="465.1" width="24.4" height="24.65" shape-rendering="crispEdges"/><rect fill="#121212" x="0" y="489.5" width="12.2" height="24.65" shape-rendering="crispEdges"/><rect fill="#121212" x="12.2" y="489.5" width="183" height="24.65" shape-rendering="crispEdges"/><rect fill="#121212" x="195.2" y="489.5" width="12.2" height="24.65" shape-rendering="crispEdges"/><rect fill="#121212" x="207.4" y="489.5" width="12.2" height="24.65" shape-rendering="crispEdges"/><rect fill="#0c0c0c" x="219.6" y="489.5" width="24.4" height="24.65" shape-rendering="crispEdges"/><rect fill="#171717" x="244" y="489.5" width="268.4" height="24.65" shape-rendering="crispEdges"/><rect fill="#171717" x="512.4" y="489.5" width="122" height="24.65" shape-rendering="crispEdges"/><rect fill="#171717" x="634.4" y="489.5" width="122" height="24.65" shape-rendering="crispEdges"/><rect fill="#171717" x="756.4" y="489.5" width="109.8" height="24.65" shape-rendering="crispEdges"/><rect fill="#171717" x="866.2" y="489.5" width="73.2" height="24.65" shape-rendering="crispEdges"/><rect fill="#5c5c5c" x="939.4" y="489.5" width="12.2" height="24.65" shape-rendering="crispEdges"/><rect fill="#0c0c0c" x="951.6" y="489.5" width="24.4" height="24.65" shape-rendering="crispEdges"/><rect fill="#121212" x="0" y="513.9" width="207.4" height="24.65" shape-rendering="crispEdges"/><rect fill="#121212" x="207.4" y="513.9" width="12.2" height="24.65" shape-rendering="crispEdges"/><rect fill="#0c0c0c" x="219.6" y="513.9" width="24.4" height="24.65" shape-rendering="crispEdges"/><rect fill="#171717" x="244" y="513.9" width="268.4" height="24.65" shape-rendering="crispEdges"/><rect fill="#171717" x="512.4" y="513.9" width="122" height="24.65" shape-rendering="crispEdges"/><rect fill="#171717" x="634.4" y="513.9" width="122" height="24.65" shape-rendering="crispEdges"/><rect fill="#171717" x="756.4" y="513.9" width="109.8" height="24.65" shape-rendering="crispEdges"/><rect fill="#171717" x="866.2" y="513.9" width="73.2" height="24.65" shape-rendering="crispEdges"/><rect fill="#000000" x="939.4" y="513.9" width="12.2" height="24.65" shape-rendering="crispEdges"/><rect fill="#0c0c0c" x="951.6" y="513.9" width="24.4" height="24.65" shape-rendering="crispEdges"/><rect fill="#202020" x="0" y="538.3" width="24.4" height="24.65" shape-rendering="crispEdges"/><rect fill="#202020" x="24.4" y="538.3" width="817.4" height="24.65" shape-rendering="crispEdges"/><rect fill="#202020" x="841.8" y="538.3" width="109.8" height="24.65" shape-rendering="crispEdges"/><rect fill="#202020" x="951.6" y="538.3" width="24.4" height="24.65" shape-rendering="crispEdges"/><rect fill="#121212" x="0" y="562.7" width="109.8" height="24.65" shape-rendering="crispEdges"/><rect fill="#121212" x="109.8" y="562.7" width="146.4" height="24.65" shape-rendering="crispEdges"/><rect fill="#121212" x="256.2" y="562.7" width="97.6" height="24.65" shape-rendering="crispEdges"/><rect fill="#121212" x="353.8" y="562.7" width="109.8" height="24.65" shape-rendering="crispEdges"/><rect fill="#121212" x="463.6" y="562.7" width="134.2" height="24.65" shape-rendering="crispEdges"/><rect fill="#121212" x="597.8" y="562.7" width="97.6" height="24.65" shape-rendering="crispEdges"/><rect fill="#121212" x="695.4" y="562.7" width="134.2" height="24.65" shape-rendering="crispEdges"/><rect fill="#121212" x="829.6" y="562.7" width="146.4" height="24.65" shape-rendering="crispEdges"/>
    <g class="terminal-2085168161-matrix">
    <text class="terminal-2085168161-r1" x="976" y="20" textLength="12.2" clip-path="url(#terminal-2085168161-line-0)">
</text><text class="terminal-2085168161-r2" x="24.4" y="44.4" textLength="122" clip-path="url(#terminal-2085168161-line-1)">BATTLECODE</text><text class="terminal-2085168161-r3" x="646.6" y="44.4" textLength="305" clip-path="url(#terminal-2085168161-line-1)">&#160;See&#160;more&#160;of&#160;my&#160;projects&#160;</text><text class="terminal-2085168161-r1" x="976" y="44.4" textLength="12.2" clip-path="url(#terminal-2085168161-line-1)">
</text><text class="terminal-2085168161-r4" x="0" y="68.8" textLength="976" clip-path="url(#terminal-2085168161-line-2)">────────────────────────────────────────────────────────────────────────────────</text><text class="terminal-2085168161-r1" x="976" y="68.8" textLength="12.2" clip-path="url(#terminal-2085168161-line-2)">
</text><text class="terminal-2085168161-r4" x="207.4" y="93.2" textLength="12.2" clip-path="url(#terminal-2085168161-line-3)">│</text><text class="terminal-2085168161-r2" x="244" y="93.2" textLength="134.2" clip-path="url(#terminal-2085168161-line-3)">Night&#160;shift</text><text class="terminal-2085168161-r1" x="976" y="93.2" textLength="12.2" clip-path="url(#terminal-2085168161-line-3)">
</text><text class="terminal-2085168161-r5" x="24.4" y="117.6" textLength="122" clip-path="url(#terminal-2085168161-line-4)">1&#160;Overview</text><text class="terminal-2085168161-r4" x="207.4" y="117.6" textLength="12.2" clip-path="url(#terminal-2085168161-line-4)">│</text><text class="terminal-2085168161-r6" x="244" y="117.6" textLength="36.6" clip-path="url(#terminal-2085168161-line-4)">ELO</text><text class="terminal-2085168161-r6" x="524.6" y="117.6" textLength="48.8" clip-path="url(#terminal-2085168161-line-4)">RANK</text><text class="terminal-2085168161-r1" x="976" y="117.6" textLength="12.2" clip-path="url(#terminal-2085168161-line-4)">
</text><text class="terminal-2085168161-r7" x="24.4" y="142" textLength="73.2" clip-path="url(#terminal-2085168161-line-5)">2&#160;Bots</text><text class="terminal-2085168161-r4" x="207.4" y="142" textLength="12.2" clip-path="url(#terminal-2085168161-line-5)">│</text><text class="terminal-2085168161-r2" x="244" y="142" textLength="183" clip-path="url(#terminal-2085168161-line-5)">&#160;▄█&#160;█▀█&#160;▀▀█&#160;█&#160;█</text><text class="terminal-2085168161-r2" x="524.6" y="142" textLength="85.4" clip-path="url(#terminal-2085168161-line-5)">&#160;▄█&#160;▀▀█</text><text class="terminal-2085168161-r3" x="658.8" y="142" textLength="134.2" clip-path="url(#terminal-2085168161-line-5)">128W&#160;4D&#160;72L</text><text class="terminal-2085168161-r1" x="976" y="142" textLength="12.2" clip-path="url(#terminal-2085168161-line-5)">
</text><text class="terminal-2085168161-r7" x="24.4" y="166.4" textLength="85.4" clip-path="url(#terminal-2085168161-line-6)">3&#160;Games</text><text class="terminal-2085168161-r4" x="207.4" y="166.4" textLength="12.2" clip-path="url(#terminal-2085168161-line-6)">│</text><text class="terminal-2085168161-r2" x="244" y="166.4" textLength="183" clip-path="url(#terminal-2085168161-line-6)">&#160;&#160;█&#160;█▀█&#160;&#160;▀█&#160;▀▀█</text><text class="terminal-2085168161-r2" x="524.6" y="166.4" textLength="85.4" clip-path="url(#terminal-2085168161-line-6)">&#160;&#160;█&#160;&#160;&#160;█</text><text class="terminal-2085168161-r3" x="658.8" y="166.4" textLength="170.8" clip-path="url(#terminal-2085168161-line-6)">62.7%&#160;win&#160;rate</text><text class="terminal-2085168161-r1" x="976" y="166.4" textLength="12.2" clip-path="url(#terminal-2085168161-line-6)">
</text><text class="terminal-2085168161-r7" x="24.4" y="190.8" textLength="85.4" clip-path="url(#terminal-2085168161-line-7)">4&#160;Arena</text><text class="terminal-2085168161-r4" x="207.4" y="190.8" textLength="12.2" clip-path="url(#terminal-2085168161-line-7)">│</text><text class="terminal-2085168161-r2" x="244" y="190.8" textLength="183" clip-path="url(#terminal-2085168161-line-7)">&#160;&#160;█&#160;█▄█&#160;▄▄█&#160;&#160;&#160;█</text><text class="terminal-2085168161-r2" x="524.6" y="190.8" textLength="85.4" clip-path="url(#terminal-2085168161-line-7)">&#160;&#160;█&#160;&#160;&#160;█</text><text class="terminal-2085168161-r1" x="976" y="190.8" textLength="12.2" clip-path="url(#terminal-2085168161-line-7)">
</text><text class="terminal-2085168161-r7" x="24.4" y="215.2" textLength="158.6" clip-path="url(#terminal-2085168161-line-8)">5&#160;Leaderboard</text><text class="terminal-2085168161-r4" x="207.4" y="215.2" textLength="12.2" clip-path="url(#terminal-2085168161-line-8)">│</text><text class="terminal-2085168161-r2" x="244" y="215.2" textLength="134.2" clip-path="url(#terminal-2085168161-line-8)">ELO&#160;history</text><text class="terminal-2085168161-r2" x="610" y="215.2" textLength="146.4" clip-path="url(#terminal-2085168161-line-8)">Rank&#160;history</text><text class="terminal-2085168161-r1" x="976" y="215.2" textLength="12.2" clip-path="url(#terminal-2085168161-line-8)">
</text><text class="terminal-2085168161-r7" x="24.4" y="239.6" textLength="122" clip-path="url(#terminal-2085168161-line-9)">6&#160;API&#160;keys</text><text class="terminal-2085168161-r4" x="207.4" y="239.6" textLength="12.2" clip-path="url(#terminal-2085168161-line-9)">│</text><text class="terminal-2085168161-r8" x="244" y="239.6" textLength="73.2" clip-path="url(#terminal-2085168161-line-9)">&#160;1902&#160;</text><text class="terminal-2085168161-r2" x="317.2" y="239.6" textLength="256.2" clip-path="url(#terminal-2085168161-line-9)">&#160;&#160;&#160;&#160;&#160;&#160;&#160;&#160;&#160;&#160;&#160;&#160;⢀⣀⠤⠔⠤⠊⠑⠢⠤</text><text class="terminal-2085168161-r8" x="610" y="239.6" textLength="73.2" clip-path="url(#terminal-2085168161-line-9)">&#160;&#160;&#160;12&#160;</text><text class="terminal-2085168161-r2" x="683.2" y="239.6" textLength="256.2" clip-path="url(#terminal-2085168161-line-9)">&#160;&#160;&#160;&#160;&#160;&#160;&#160;&#160;&#160;&#160;⣀&#160;⡠⢄⠤⠔⠤⠊⠉⠒⠒</text><text class="terminal-2085168161-r1" x="976" y="239.6" textLength="12.2" clip-path="url(#terminal-2085168161-line-9)">
</text><text class="terminal-2085168161-r4" x="207.4" y="264" textLength="12.2" clip-path="url(#terminal-2085168161-line-10)">│</text><text class="terminal-2085168161-r2" x="317.2" y="264" textLength="256.2" clip-path="url(#terminal-2085168161-line-10)">&#160;&#160;&#160;&#160;&#160;⣀⣀⡠⠤⠔⠉⠉⠁&#160;&#160;&#160;&#160;&#160;&#160;&#160;&#160;</text><text class="terminal-2085168161-r2" x="683.2" y="264" textLength="256.2" clip-path="url(#terminal-2085168161-line-10)">&#160;&#160;&#160;&#160;⢀⠤⢄⠎⠉⠊&#160;⠉&#160;&#160;&#160;&#160;&#160;&#160;&#160;&#160;&#160;</text><text class="terminal-2085168161-r1" x="976" y="264" textLength="12.2" clip-path="url(#terminal-2085168161-line-10)">
</text><text class="terminal-2085168161-r4" x="207.4" y="288.4" textLength="12.2" clip-path="url(#terminal-2085168161-line-11)">│</text><text class="terminal-2085168161-r8" x="244" y="288.4" textLength="73.2" clip-path="url(#terminal-2085168161-line-11)">&#160;1500&#160;</text><text class="terminal-2085168161-r2" x="317.2" y="288.4" textLength="256.2" clip-path="url(#terminal-2085168161-line-11)">⡠⢄⠤⠒⠊&#160;&#160;&#160;&#160;&#160;&#160;&#160;&#160;&#160;&#160;&#160;&#160;&#160;&#160;&#160;&#160;</text><text class="terminal-2085168161-r8" x="610" y="288.4" textLength="73.2" clip-path="url(#terminal-2085168161-line-11)">&#160;&#160;&#160;54&#160;</text><text class="terminal-2085168161-r2" x="683.2" y="288.4" textLength="256.2" clip-path="url(#terminal-2085168161-line-11)">⡠⠤⠊⠉⠁&#160;&#160;&#160;&#160;&#160;&#160;&#160;&#160;&#160;&#160;&#160;&#160;&#160;&#160;&#160;&#160;</text><text class="terminal-2085168161-r1" x="976" y="288.4" textLength="12.2" clip-path="url(#terminal-2085168161-line-11)">
</text><text class="terminal-2085168161-r4" x="207.4" y="312.8" textLength="12.2" clip-path="url(#terminal-2085168161-line-12)">│</text><text class="terminal-2085168161-r8" x="244" y="312.8" textLength="329.4" clip-path="url(#terminal-2085168161-line-12)">&#160;&#160;&#160;&#160;&#160;&#160;10-01&#160;&#160;&#160;&#160;&#160;&#160;&#160;&#160;&#160;&#160;&#160;10-02</text><text class="terminal-2085168161-r8" x="610" y="312.8" textLength="329.4" clip-path="url(#terminal-2085168161-line-12)">&#160;&#160;&#160;&#160;&#160;&#160;10-01&#160;&#160;&#160;&#160;&#160;&#160;&#160;&#160;&#160;&#160;&#160;10-02</text><text class="terminal-2085168161-r1" x="976" y="312.8" textLength="12.2" clip-path="url(#terminal-2085168161-line-12)">
</text><text class="terminal-2085168161-r4" x="207.4" y="337.2" textLength="12.2" clip-path="url(#terminal-2085168161-line-13)">│</text><text class="terminal-2085168161-r1" x="976" y="337.2" textLength="12.2" clip-path="url(#terminal-2085168161-line-13)">
</text><text class="terminal-2085168161-r4" x="207.4" y="361.6" textLength="12.2" clip-path="url(#terminal-2085168161-line-14)">│</text><text class="terminal-2085168161-r9" x="244" y="361.6" textLength="646.6" clip-path="url(#terminal-2085168161-line-14)">ACTIVE&#160;&#160;nightjar-v4&#160;&#160;&#160;·&#160;&#160;&#160;70.0%&#160;wins&#160;&#160;&#160;·&#160;&#160;&#160;49W&#160;2D&#160;19L</text><text class="terminal-2085168161-r1" x="976" y="361.6" textLength="12.2" clip-path="url(#terminal-2085168161-line-14)">
</text><text class="terminal-2085168161-r4" x="207.4" y="386" textLength="12.2" clip-path="url(#terminal-2085168161-line-15)">│</text><text class="terminal-2085168161-r1" x="976" y="386" textLength="12.2" clip-path="url(#terminal-2085168161-line-15)">
</text><text class="terminal-2085168161-r4" x="207.4" y="410.4" textLength="12.2" clip-path="url(#terminal-2085168161-line-16)">│</text><text class="terminal-2085168161-r2" x="244" y="410.4" textLength="146.4" clip-path="url(#terminal-2085168161-line-16)">Recent&#160;games</text><text class="terminal-2085168161-r1" x="976" y="410.4" textLength="12.2" clip-path="url(#terminal-2085168161-line-16)">
</text><text class="terminal-2085168161-r4" x="207.4" y="434.8" textLength="12.2" clip-path="url(#terminal-2085168161-line-17)">│</text><text class="terminal-2085168161-r10" x="244" y="434.8" textLength="268.4" clip-path="url(#terminal-2085168161-line-17)">&#160;OPPONENT&#160;&#160;&#160;&#160;&#160;&#160;&#160;&#160;&#160;&#160;&#160;&#160;&#160;</text><text class="terminal-2085168161-r10" x="512.4" y="434.8" textLength="122" clip-path="url(#terminal-2085168161-line-17)">&#160;RESULT&#160;&#160;&#160;</text><text class="terminal-2085168161-r10" x="634.4" y="434.8" textLength="122" clip-path="url(#terminal-2085168161-line-17)">&#160;MODE&#160;&#160;&#160;&#160;&#160;</text><text class="terminal-2085168161-r10" x="756.4" y="434.8" textLength="109.8" clip-path="url(#terminal-2085168161-line-17)">&#160;Δ&#160;ELO&#160;&#160;&#160;</text><text class="terminal-2085168161-r1" x="976" y="434.8" textLength="12.2" clip-path="url(#terminal-2085168161-line-17)">
</text><text class="terminal-2085168161-r4" x="207.4" y="459.2" textLength="12.2" clip-path="url(#terminal-2085168161-line-18)">│</text><text class="terminal-2085168161-r5" x="244" y="459.2" textLength="268.4" clip-path="url(#terminal-2085168161-line-18)">&#160;Paper&#160;crane&#160;&#160;&#160;&#160;&#160;&#160;&#160;&#160;&#160;&#160;</text><text class="terminal-2085168161-r5" x="512.4" y="459.2" textLength="122" clip-path="url(#terminal-2085168161-line-18)">&#160;WIN&#160;&#160;&#160;&#160;&#160;&#160;</text><text class="terminal-2085168161-r5" x="634.4" y="459.2" textLength="122" clip-path="url(#terminal-2085168161-line-18)">&#160;Unranked&#160;</text><text class="terminal-2085168161-r5" x="756.4" y="459.2" textLength="109.8" clip-path="url(#terminal-2085168161-line-18)">&#160;+0&#160;&#160;&#160;&#160;&#160;&#160;</text><text class="terminal-2085168161-r1" x="976" y="459.2" textLength="12.2" clip-path="url(#terminal-2085168161-line-18)">
</text><text class="terminal-2085168161-r4" x="207.4" y="483.6" textLength="12.2" clip-path="url(#terminal-2085168161-line-19)">│</text><text class="terminal-2085168161-r7" x="244" y="483.6" textLength="268.4" clip-path="url(#terminal-2085168161-line-19)">&#160;Northstar&#160;&#160;&#160;&#160;&#160;&#160;&#160;&#160;&#160;&#160;&#160;&#160;</text><text class="terminal-2085168161-r7" x="512.4" y="483.6" textLength="122" clip-path="url(#terminal-2085168161-line-19)">&#160;WIN&#160;&#160;&#160;&#160;&#160;&#160;</text><text class="terminal-2085168161-r7" x="634.4" y="483.6" textLength="122" clip-path="url(#terminal-2085168161-line-19)">&#160;Ranked&#160;&#160;&#160;</text><text class="terminal-2085168161-r7" x="756.4" y="483.6" textLength="109.8" clip-path="url(#terminal-2085168161-line-19)">&#160;+18&#160;&#160;&#160;&#160;&#160;</text><text class="terminal-2085168161-r1" x="976" y="483.6" textLength="12.2" clip-path="url(#terminal-2085168161-line-19)">
</text><text class="terminal-2085168161-r4" x="207.4" y="508" textLength="12.2" clip-path="url(#terminal-2085168161-line-20)">│</text><text class="terminal-2085168161-r7" x="244" y="508" textLength="268.4" clip-path="url(#terminal-2085168161-line-20)">&#160;Atlas&#160;&#160;&#160;&#160;&#160;&#160;&#160;&#160;&#160;&#160;&#160;&#160;&#160;&#160;&#160;&#160;</text><text class="terminal-2085168161-r7" x="512.4" y="508" textLength="122" clip-path="url(#terminal-2085168161-line-20)">&#160;LOSS&#160;&#160;&#160;&#160;&#160;</text><text class="terminal-2085168161-r7" x="634.4" y="508" textLength="122" clip-path="url(#terminal-2085168161-line-20)">&#160;Ranked&#160;&#160;&#160;</text><text class="terminal-2085168161-r7" x="756.4" y="508" textLength="109.8" clip-path="url(#terminal-2085168161-line-20)">&#160;-9&#160;&#160;&#160;&#160;&#160;&#160;</text><text class="terminal-2085168161-r12" x="939.4" y="508" textLength="12.2" clip-path="url(#terminal-2085168161-line-20)">▃</text><text class="terminal-2085168161-r1" x="976" y="508" textLength="12.2" clip-path="url(#terminal-2085168161-line-20)">
</text><text class="terminal-2085168161-r4" x="207.4" y="532.4" textLength="12.2" clip-path="url(#terminal-2085168161-line-21)">│</text><text class="terminal-2085168161-r7" x="244" y="532.4" textLength="268.4" clip-path="url(#terminal-2085168161-line-21)">&#160;Compass&#160;&#160;&#160;&#160;&#160;&#160;&#160;&#160;&#160;&#160;&#160;&#160;&#160;&#160;</text><text class="terminal-2085168161-r7" x="512.4" y="532.4" textLength="122" clip-path="url(#terminal-2085168161-line-21)">&#160;WIN&#160;&#160;&#160;&#160;&#160;&#160;</text><text class="terminal-2085168161-r7" x="634.4" y="532.4" textLength="122" clip-path="url(#terminal-2085168161-line-21)">&#160;Unranked&#160;</text><text class="terminal-2085168161-r7" x="756.4" y="532.4" textLength="109.8" clip-path="url(#terminal-2085168161-line-21)">&#160;+0&#160;&#160;&#160;&#160;&#160;&#160;</text><text class="terminal-2085168161-r1" x="976" y="532.4" textLength="12.2" clip-path="url(#terminal-2085168161-line-21)">
</text><text class="terminal-2085168161-r13" x="24.4" y="556.8" textLength="817.4" clip-path="url(#terminal-2085168161-line-22)">DEMO&#160;·&#160;synthetic&#160;data&#160;·&#160;Updated&#160;21:32:42&#160;&#160;·&#160;&#160;refresh&#160;45s&#160;&#160;·&#160;&#160;?&#160;help</text><text class="terminal-2085168161-r1" x="976" y="556.8" textLength="12.2" clip-path="url(#terminal-2085168161-line-22)">
</text>
    </g>
    </g>
</svg>
